<svg enable-background="new 0 0 76.00 76.00" height="76" viewBox="0 0 76 76" width="76" xmlns="http://www.w3.org/2000/svg"><path d="m38 19c2 0 5 .75 5 .75l-2.75 8.25h-2.25-2.25l-2.75-8.25s3-.75 5-.75zm0 10h3l3-9s4 1 5 3 1.2968 7.0626 1.4999 12.7501c0 11.1093-2.4999 16.2499-7.3059 20.6341-.477.4351-3.3358.6158-5.194.6158-1.8583 0-4.7171-.1807-5.1941-.6158-4.8059-4.3842-7.3058-9.5248-7.3058-20.6341.2031-5.6875.4999-10.7501 1.4999-12.7501s5-3 5-3l3 9zm0 21h4l1 2s1-2 2-2v-1s-2 1-2 2l-.75-1.75h-4.25-4.25l-.75 1.75c0-1-2-2-2-2v1c1 0 2 2 2 2l1-2zm3-13.25v1.75c6 1 7.5-1.25 7.5-1.25l-.5-2.25c-2 2-7 1.25-7 1.25h-6s-5 .75-7-1.25l-.5 2.25s1.5 2.25 7.5 1.25v-1.75z" stroke-linejoin="round"/></svg>